<svg width="69" height="69" viewBox="0 0 69 69" fill="none" xmlns="http://www.w3.org/2000/svg">
<g clip-path="url(#clip0_104_402)">
<path d="M32.0725 46.8958C31.2924 46.8958 30.5988 46.5491 30.1655 46.0291L17.0762 31.8129C16.1227 30.7728 16.2095 29.1257 17.2496 28.1722C18.2897 27.2187 19.9368 27.3055 20.8903 28.3456L32.1591 40.5679L63.3653 9.44856C64.4054 8.40842 66.0525 8.40842 67.006 9.44856C67.9595 10.4887 68.0461 12.1358 67.006 13.0893L33.893 46.1157C33.4594 46.6358 32.7661 46.8958 32.0725 46.8958Z" fill="#0079C2"/>
<path d="M34.5001 69C15.5163 69 0 53.4837 0 34.5001C0 15.5165 15.5163 0 34.5001 0C35.9738 0 37.1005 1.12691 37.1005 2.60043C37.1005 4.07394 35.9736 5.20085 34.5001 5.20085C18.3769 5.20085 5.20102 18.3767 5.20102 34.4999C5.20102 50.6231 18.3769 63.799 34.5001 63.799C50.6233 63.799 63.7991 50.6231 63.7991 34.4999C63.7991 33.0262 64.9261 31.8995 66.3996 31.8995C67.8731 31.8995 69 33.0264 69 34.4999C69 53.4837 53.4837 69 34.5001 69Z" fill="#4C4C4C"/>
</g>
<defs>
<clipPath id="clip0_104_402">
<rect width="69" height="69" fill="white"/>
</clipPath>
</defs>
</svg>
