<svg width="75" height="75" viewBox="0 0 75 75" fill="none" xmlns="http://www.w3.org/2000/svg">
<g clip-path="url(#clip0_51_806)">
<path d="M65.4647 43.9115C64.6056 32.7261 59.3978 25.7166 54.8035 19.5312C50.5493 13.8048 46.875 8.85981 46.875 1.56519C46.875 0.979248 46.5469 0.443701 46.0266 0.175196C45.5046 -0.0949216 44.8775 -0.0506834 44.4031 0.294141C37.5031 5.23154 31.7459 13.5532 29.7349 21.4932C28.3387 27.0211 28.154 33.2355 28.1281 37.3399C21.756 35.9789 20.3125 26.4475 20.2973 26.3436C20.2255 25.8492 19.9235 25.419 19.484 25.184C19.04 24.9521 18.5181 24.9353 18.068 25.1581C17.7338 25.3198 9.86631 29.3174 9.40854 45.2785C9.37646 45.8095 9.375 46.3421 9.375 46.8746C9.375 62.381 21.9924 74.9977 37.5 74.9977C37.5214 74.9991 37.5442 75.0022 37.5625 74.9977C37.5687 74.9977 37.5747 74.9977 37.5823 74.9977C53.0518 74.9533 65.625 62.3536 65.625 46.8746C65.625 46.0948 65.4647 43.9115 65.4647 43.9115ZM37.5 71.8728C32.3303 71.8728 28.125 67.3932 28.125 61.8867C28.125 61.6991 28.1235 61.5098 28.1372 61.2779C28.1997 58.9557 28.6408 57.3705 29.1245 56.3161C30.0309 58.263 31.6513 60.0527 34.2835 60.0527C35.1472 60.0527 35.846 59.3539 35.846 58.4903C35.846 56.2658 35.8919 53.6994 36.4458 51.3832C36.9387 49.3295 38.1166 47.1445 39.6089 45.393C40.2727 47.6664 41.5667 49.5064 42.8301 51.3023C44.6383 53.8717 46.5075 56.5282 46.8356 61.0582C46.8554 61.3267 46.8753 61.5968 46.8753 61.8867C46.875 67.3931 42.6697 71.8728 37.5 71.8728Z" fill="#0079C2"/>
</g>
<defs>
<clipPath id="clip0_51_806">
<rect width="75" height="75" fill="white"/>
</clipPath>
</defs>
</svg>
