<svg width="47" height="47" viewBox="0 0 47 47" fill="none" xmlns="http://www.w3.org/2000/svg">
<rect x="2.47368" y="8.65796" width="40.8158" height="28.4474" fill="white"/>
<path d="M45.5313 9.06957C45.507 8.69682 45.3416 8.34732 45.0687 8.09219C44.7959 7.83707 44.436 7.6955 44.0625 7.69629H2.9375C2.54796 7.69629 2.17438 7.85104 1.89894 8.12648C1.62349 8.40192 1.46875 8.77551 1.46875 9.16504V37.8057C1.46875 38.1952 1.62349 38.5688 1.89894 38.8442C2.17438 39.1197 2.54796 39.2744 2.9375 39.2744H44.0625C44.452 39.2744 44.8256 39.1197 45.1011 38.8442C45.3765 38.5688 45.5313 38.1952 45.5313 37.8057V9.16504C45.5313 9.12832 45.5313 9.09895 45.5313 9.06957ZM38.9219 10.6338L23.5 20.1807L8.07813 10.6338H38.9219ZM4.40625 36.3369V11.8088L22.7216 23.1843C22.955 23.3302 23.2247 23.4075 23.5 23.4075C23.7753 23.4075 24.045 23.3302 24.2784 23.1843L42.5938 11.8088V36.3663L4.40625 36.3369Z" fill="#0079C2"/>
</svg>
