<svg width="212" height="266" viewBox="0 0 212 266" fill="none" xmlns="http://www.w3.org/2000/svg">
<g clip-path="url(#clip0_47_258)">
<path d="M184.268 123.601C181.85 92.1163 167.191 72.3864 154.259 54.9758C142.285 38.8574 131.942 24.9383 131.942 4.40561C131.942 2.75633 131.019 1.24889 129.554 0.493108C128.085 -0.267209 126.32 -0.142689 124.985 0.827911C105.563 14.7256 89.3577 38.149 83.697 60.4984C79.7672 76.0581 79.2472 93.5503 79.1742 105.103C61.2383 101.272 57.1753 74.4434 57.1325 74.1511C56.9304 72.7595 56.0802 71.5485 54.8433 70.8872C53.5935 70.2345 52.1244 70.1871 50.8574 70.8142C49.9169 71.2694 27.7716 82.5216 26.4831 127.448C26.3928 128.943 26.3887 130.442 26.3887 131.941C26.3887 175.588 61.9038 211.101 105.554 211.101C105.614 211.105 105.679 211.114 105.73 211.101C105.747 211.101 105.764 211.101 105.786 211.101C149.329 210.976 184.719 175.511 184.719 131.941C184.719 129.746 184.268 123.601 184.268 123.601ZM105.554 202.305C91.0024 202.305 79.1656 189.696 79.1656 174.197C79.1656 173.669 79.1614 173.136 79.1998 172.483C79.3759 165.947 80.6174 161.485 81.9788 158.517C84.5303 163.997 89.0914 169.034 96.5003 169.034C98.9314 169.034 100.899 167.067 100.899 164.637C100.899 158.375 101.028 151.151 102.587 144.632C103.974 138.851 107.289 132.701 111.49 127.771C113.358 134.17 117.001 139.349 120.557 144.404C125.647 151.636 130.908 159.114 131.832 171.865C131.887 172.62 131.943 173.381 131.943 174.197C131.942 189.696 120.106 202.305 105.554 202.305Z" fill="white"/>
</g>
<path d="M31.6 256.773V228.373H50.12V235.173H39.4V256.773H31.6ZM60.1094 228.373H68.8294L77.8694 256.773H69.9494L68.2294 251.213H60.6694L58.9894 256.773H51.0294L60.1094 228.373ZM66.9894 246.013L64.4694 236.013L61.8294 246.013H66.9894ZM91.1091 257.013C88.4691 257.013 86.0957 256.507 83.9891 255.493C81.9091 254.453 80.2557 253.013 79.0291 251.173L84.8691 247.533C85.4824 248.467 86.2957 249.213 87.3091 249.773C88.3491 250.307 89.5491 250.573 90.9091 250.573C92.3224 250.573 93.3091 250.333 93.8691 249.853C94.4291 249.347 94.7091 248.72 94.7091 247.973C94.7091 247.44 94.5891 246.987 94.3491 246.613C94.1091 246.24 93.7091 245.947 93.1491 245.733C92.5891 245.52 91.8424 245.413 90.9091 245.413H86.9491V239.573H90.9091C91.6824 239.573 92.2957 239.493 92.7491 239.333C93.2291 239.147 93.5624 238.893 93.7491 238.573C93.9624 238.227 94.0691 237.827 94.0691 237.373C94.0691 236.92 93.9624 236.533 93.7491 236.213C93.5357 235.867 93.1757 235.6 92.6691 235.413C92.1624 235.227 91.4691 235.133 90.5891 235.133C89.0424 235.133 87.7491 235.4 86.7091 235.933C85.6957 236.467 84.9224 237.147 84.3891 237.973L78.7891 233.973C80.0957 232.267 81.6957 230.88 83.5891 229.813C85.4824 228.747 87.9224 228.213 90.9091 228.213C93.1757 228.213 95.0957 228.507 96.6691 229.093C98.2691 229.68 99.4957 230.56 100.349 231.733C101.202 232.907 101.629 234.373 101.629 236.133C101.629 237.307 101.349 238.453 100.789 239.573C100.229 240.693 99.2424 241.573 97.8291 242.213C99.3757 242.693 100.562 243.52 101.389 244.693C102.216 245.84 102.629 247.2 102.629 248.773C102.629 250.587 102.122 252.107 101.109 253.333C100.096 254.56 98.7224 255.48 96.9891 256.093C95.2557 256.707 93.2957 257.013 91.1091 257.013ZM128.599 235.173H120.439V256.773H112.639V235.173H104.439V228.373H128.599V235.173ZM151.68 249.973V256.773H131.44V228.373H151.32V235.173H139.24V239.173H149.56V245.493H139.24V249.973H151.68ZM155.467 256.773V228.373H163.227V238.813H164.827L172.147 228.373H180.707L170.707 242.093L181.627 256.773H172.187L164.507 245.893H163.227V256.773H155.467Z" fill="white"/>
<defs>
<clipPath id="clip0_47_258">
<rect width="211.108" height="211.108" fill="white"/>
</clipPath>
</defs>
</svg>
