<svg width="358" height="446" viewBox="0 0 358 446" fill="none" xmlns="http://www.w3.org/2000/svg">
<g clip-path="url(#clip0_51_870)">
<path d="M312.485 209.604C308.384 156.212 283.526 122.754 261.595 93.2289C241.288 65.895 223.75 42.2908 223.75 7.47111C223.75 4.67423 222.184 2.11789 219.7 0.836221C217.209 -0.453138 214.215 -0.241974 211.951 1.40399C179.015 24.9719 151.534 64.6938 141.934 102.594C135.27 128.981 134.388 158.644 134.265 178.236C103.849 171.739 96.9586 126.243 96.8858 125.747C96.5432 123.387 95.1014 121.333 93.0038 120.212C90.8845 119.105 88.3931 119.024 86.2444 120.088C84.6495 120.86 47.0952 139.942 44.9101 216.129C44.757 218.664 44.75 221.206 44.75 223.748C44.75 297.765 104.977 357.989 179 357.989C179.102 357.996 179.211 358.01 179.299 357.989C179.328 357.989 179.357 357.989 179.393 357.989C253.234 357.777 313.25 297.634 313.25 223.748C313.25 220.026 312.485 209.604 312.485 209.604ZM179 343.073C154.323 343.073 134.25 321.69 134.25 295.406C134.25 294.51 134.243 293.607 134.308 292.5C134.607 281.415 136.712 273.848 139.021 268.815C143.348 278.109 151.082 286.652 163.647 286.652C167.769 286.652 171.105 283.316 171.105 279.194C171.105 268.575 171.324 256.325 173.968 245.269C176.321 235.466 181.943 225.036 189.067 216.676C192.235 227.528 198.412 236.311 204.442 244.883C213.074 257.147 221.996 269.828 223.562 291.451C223.656 292.733 223.751 294.022 223.751 295.406C223.75 321.69 203.677 343.073 179 343.073Z" fill="#0079C2"/>
</g>
<path d="M60.16 431V385.56H89.792V396.44H72.64V431H60.16ZM105.775 385.56H119.727L134.191 431H121.519L118.767 422.104H106.671L103.983 431H91.247L105.775 385.56ZM116.783 413.784L112.751 397.784L108.527 413.784H116.783ZM155.375 431.384C151.151 431.384 147.353 430.573 143.983 428.952C140.655 427.288 138.009 424.984 136.047 422.04L145.391 416.216C146.372 417.709 147.673 418.904 149.295 419.8C150.959 420.653 152.879 421.08 155.055 421.08C157.316 421.08 158.895 420.696 159.791 419.928C160.687 419.117 161.135 418.115 161.135 416.92C161.135 416.067 160.943 415.341 160.559 414.744C160.175 414.147 159.535 413.677 158.639 413.336C157.743 412.995 156.548 412.824 155.055 412.824H148.719V403.48H155.055C156.292 403.48 157.273 403.352 157.999 403.096C158.767 402.797 159.3 402.392 159.599 401.88C159.94 401.325 160.111 400.685 160.111 399.96C160.111 399.235 159.94 398.616 159.599 398.104C159.257 397.549 158.681 397.123 157.871 396.824C157.06 396.525 155.951 396.376 154.543 396.376C152.068 396.376 149.999 396.803 148.335 397.656C146.713 398.509 145.476 399.597 144.623 400.92L135.663 394.52C137.753 391.789 140.313 389.571 143.343 387.864C146.372 386.157 150.276 385.304 155.055 385.304C158.681 385.304 161.753 385.773 164.271 386.712C166.831 387.651 168.793 389.059 170.159 390.936C171.524 392.813 172.207 395.16 172.207 397.976C172.207 399.853 171.759 401.688 170.863 403.48C169.967 405.272 168.388 406.68 166.127 407.704C168.601 408.472 170.5 409.795 171.823 411.672C173.145 413.507 173.807 415.683 173.807 418.2C173.807 421.101 172.996 423.533 171.375 425.496C169.753 427.459 167.556 428.931 164.783 429.912C162.009 430.893 158.873 431.384 155.375 431.384ZM215.359 396.44H202.303V431H189.823V396.44H176.703V385.56H215.359V396.44ZM252.288 420.12V431H219.904V385.56H251.712V396.44H232.384V402.84H248.896V412.952H232.384V420.12H252.288ZM258.348 431V385.56H270.764V402.264H273.324L285.036 385.56H298.732L282.732 407.512L300.204 431H285.1L272.812 413.592H270.764V431H258.348Z" fill="#0079C2"/>
<defs>
<clipPath id="clip0_51_870">
<rect width="358" height="358" fill="white"/>
</clipPath>
</defs>
</svg>
