<svg width="118" height="150" viewBox="0 0 118 150" fill="none" xmlns="http://www.w3.org/2000/svg">
<g clip-path="url(#clip0_51_995)">
<path d="M102.612 68.8288C101.266 51.2963 93.1029 40.3094 85.9015 30.6141C79.2333 21.6383 73.474 13.8873 73.474 2.45333C73.474 1.5349 72.9597 0.695463 72.1442 0.274595C71.3261 -0.148799 70.3431 -0.0794584 69.5994 0.461035C58.7841 8.20015 49.7601 21.2439 46.6078 33.6894C44.4194 42.3541 44.1299 52.0949 44.0893 58.5283C34.1014 56.395 31.8388 41.455 31.815 41.2922C31.7025 40.5172 31.229 39.8429 30.5402 39.4746C29.8443 39.1111 29.0262 39.0847 28.3206 39.434C27.7969 39.6874 15.4649 45.9534 14.7474 70.9715C14.6971 71.8039 14.6948 72.6387 14.6948 73.4733C14.6948 97.7788 34.472 117.555 58.7792 117.555C58.8128 117.557 58.8486 117.562 58.8773 117.555C58.8869 117.555 58.8963 117.555 58.9083 117.555C83.1559 117.485 102.864 97.7358 102.864 73.4733C102.864 72.2511 102.612 68.8288 102.612 68.8288ZM58.7792 112.657C50.676 112.657 44.0844 105.635 44.0844 97.0041C44.0844 96.71 44.0821 96.4133 44.1035 96.0498C44.2015 92.4099 44.8929 89.9251 45.651 88.2724C47.0718 91.3241 49.6118 94.1294 53.7375 94.1294C55.0913 94.1294 56.1868 93.034 56.1868 91.6804C56.1868 88.1936 56.2586 84.1709 57.1268 80.5404C57.8994 77.3213 59.7457 73.8965 62.0849 71.1511C63.1252 74.7146 65.1536 77.5987 67.1339 80.4136C69.9682 84.4409 72.898 88.6048 73.4123 95.7054C73.4433 96.1263 73.4745 96.5497 73.4745 97.0041C73.4741 105.635 66.8825 112.657 58.7792 112.657Z" fill="white"/>
</g>
<path d="M14.56 143.559V126.519H25.672V130.599H19.24V143.559H14.56ZM31.6656 126.519H36.8976L42.3216 143.559H37.5696L36.5376 140.223H32.0016L30.9936 143.559H26.2176L31.6656 126.519ZM35.7936 137.103L34.2816 131.103L32.6976 137.103H35.7936ZM50.2654 143.703C48.6814 143.703 47.2574 143.399 45.9934 142.791C44.7454 142.167 43.7534 141.303 43.0174 140.199L46.5214 138.015C46.8894 138.575 47.3774 139.023 47.9854 139.359C48.6094 139.679 49.3294 139.839 50.1454 139.839C50.9934 139.839 51.5854 139.695 51.9214 139.407C52.2574 139.103 52.4254 138.727 52.4254 138.279C52.4254 137.959 52.3534 137.687 52.2094 137.463C52.0654 137.239 51.8254 137.063 51.4894 136.935C51.1534 136.807 50.7054 136.743 50.1454 136.743H47.7694V133.239H50.1454C50.6094 133.239 50.9774 133.191 51.2494 133.095C51.5374 132.983 51.7374 132.831 51.8494 132.639C51.9774 132.431 52.0414 132.191 52.0414 131.919C52.0414 131.647 51.9774 131.415 51.8494 131.223C51.7214 131.015 51.5054 130.855 51.2014 130.743C50.8974 130.631 50.4814 130.575 49.9534 130.575C49.0254 130.575 48.2494 130.735 47.6254 131.055C47.0174 131.375 46.5534 131.783 46.2334 132.279L42.8734 129.879C43.6574 128.855 44.6174 128.023 45.7534 127.383C46.8894 126.743 48.3534 126.423 50.1454 126.423C51.5054 126.423 52.6574 126.599 53.6014 126.951C54.5614 127.303 55.2974 127.831 55.8094 128.535C56.3214 129.239 56.5774 130.119 56.5774 131.175C56.5774 131.879 56.4094 132.567 56.0734 133.239C55.7374 133.911 55.1454 134.439 54.2974 134.823C55.2254 135.111 55.9374 135.607 56.4334 136.311C56.9294 136.999 57.1774 137.815 57.1774 138.759C57.1774 139.847 56.8734 140.759 56.2654 141.495C55.6574 142.231 54.8334 142.783 53.7934 143.151C52.7534 143.519 51.5774 143.703 50.2654 143.703ZM72.7594 130.599H67.8634V143.559H63.1834V130.599H58.2634V126.519H72.7594V130.599ZM86.608 139.479V143.559H74.464V126.519H86.392V130.599H79.144V132.999H85.336V136.791H79.144V139.479H86.608ZM88.8803 143.559V126.519H93.5363V132.783H94.4963L98.8883 126.519H104.024L98.0243 134.751L104.576 143.559H98.9123L94.3043 137.031H93.5363V143.559H88.8803Z" fill="white"/>
<defs>
<clipPath id="clip0_51_995">
<rect width="117.558" height="117.558" fill="white"/>
</clipPath>
</defs>
</svg>
