<svg width="23" height="23" viewBox="0 0 23 23" fill="none" xmlns="http://www.w3.org/2000/svg">
<g clip-path="url(#clip0_250_574)">
<path d="M22.8318 18.433L18.0384 13.6398C17.8179 13.4193 17.4604 13.4193 17.2401 13.6398L14.722 16.158C14.0374 15.9687 12.2178 15.3028 10.1244 13.2101C7.95252 11.038 7.07253 8.87296 6.85426 8.26071L9.35764 5.75732C9.46371 5.65151 9.52326 5.50779 9.52326 5.35793C9.52326 5.20807 9.46371 5.0646 9.35764 4.95879L4.56422 0.165367C4.34374 -0.0551222 3.98618 -0.0551222 3.76569 0.165367L0.963806 2.9675C0.927386 3.00367 0.896626 3.04452 0.87128 3.08931L0.866112 3.09521C-1.36462 5.83681 0.868327 11.9652 5.95015 17.0473C9.56657 20.6635 13.9483 23 17.1136 23C18.2436 23 19.1741 22.7138 19.8801 22.1491L19.946 22.1038C19.9748 22.0841 20.0014 22.0622 20.0258 22.0373L22.8318 19.2313C22.9379 19.1252 22.9974 18.9815 22.9974 18.8321C22.9974 18.6825 22.9376 18.539 22.8318 18.433Z" fill="white"/>
</g>
<defs>
<clipPath id="clip0_250_574">
<rect width="23" height="23" fill="white"/>
</clipPath>
</defs>
</svg>
